<svg width="48" height="48" xmlns="http://www.w3.org/2000/svg">

 <g>
  <title>background</title>
  <rect fill="none" id="canvas_background" height="402" width="582" y="-1" x="-1"/>
 </g>
 <g>
  <title>Layer 1</title>
  <path fill="#593196" id="svg_2" d="m27,5c0,-1.7 -1.3,-3 -3,-3s-3,1.3 -3,3l-16,0l0,2l38,0l0,-2l-16,0zm-3,-1c0.6,0 1,0.4 1,1l-2,0c0,-0.6 0.4,-1 1,-1z"/>
  <rect fill="#593196" id="svg_3" y="12" x="16" width="2" height="28"/>
  <rect fill="#593196" id="svg_4" y="12" x="30" width="2" height="28"/>
  <rect fill="#593196" id="svg_5" y="11.905957" x="23.094043" width="2" height="28"/>
  <path fill="#593196" id="svg_6" d="m37,43c0,0.6 -0.4,1 -1,1l-24,0c-0.6,0 -1,-0.4 -1,-1l0,-34l-2,0l0,34c0,1.7 1.3,3 3,3l24,0c1.7,0 3,-1.3 3,-3l0,-34l-2,0l0,34z"/>
 </g>
</svg>